<svg xmlns="http://www.w3.org/2000/svg" viewBox="0 0 1920 665"><path d="M311.5.611C209.959 8.55 122.099 57.059 63.419 137.579 12.241 207.806-9.851 300.115 4.324 384.5l1.176 7 94.75.255 94.75.255V363H69.07l-3.523-3.093c-5.759-5.056-5.679-3.753-5.35-86.952.337-85.19-.137-79.582 7.107-83.999 5.023-3.063 296.374-3.059 301.397.004 7.233 4.409 6.768-2.541 7.068 105.796l.27 97.256 78.23-.256 78.231-.256v-28l-62.177-.5c-60.912-.49-62.235-.542-65-2.571-6.613-4.852-6.32-.902-6.321-85.211-.002-82.608-.167-80.036 5.45-85.218l2.709-2.5 111.919-.263c61.556-.144 111.92-.465 111.92-.712 0-3.205-24.252-42.438-34.089-55.147C539.789 57.576 460.787 13.008 367.5 1.96c-9.392-1.112-47.339-2.027-56-1.349m474.393 85.893c-21.413 4.268-33.771 21.62-32.739 45.971.809 19.102 10.108 23.508 49.628 23.519 23.691.007 27.388.726 29.311 5.708 1.421 3.679.416 10.739-2.111 14.827-4.057 6.565-6.203 6.9-46.569 7.271l-36.088.332-1.678 9.684c-.924 5.326-1.672 10.061-1.663 10.522.033 1.729 78.945.152 85.441-1.707 17.583-5.034 25.993-15.072 29.398-35.086 2.955-17.372-1.443-26.248-15.265-30.802-1.682-.554-15.583-1.286-30.892-1.625l-27.834-.618-2.916-3.266c-4.513-5.054-3.279-13.106 2.966-19.352 5.568-5.568 7.9-5.87 45.285-5.876l33.667-.006 1.077-5.019c.592-2.76 1.366-7.485 1.72-10.5l.644-5.481-37.387.094c-26.564.067-39.301.475-43.995 1.41m142.607-.789c-32.206 4.453-50.864 27.661-55.569 69.118-2.524 22.236 4.863 38.605 20.692 45.852 7.293 3.339 19.855 4.45 46.354 4.099l21.477-.284 1.202-5.412c.66-2.977 1.5-7.589 1.866-10.25l.666-4.838h-23.913c-27.659 0-32.124-.786-37.181-6.546-1.702-1.938-3.094-3.672-3.094-3.852 0-.181-.453-2.718-1.007-5.638-2.852-15.038 5.525-44.535 15.473-54.483 7.027-7.027 10.42-7.759 38.977-8.411l24.943-.57 1.261-7a1683.9 1683.9 0 0 1 1.782-9.75l.521-2.75-25.725.15c-14.149.082-27.075.336-28.725.565m62.59 58.035c-5.679 32.313-10.385 59.2-10.457 59.75-.083.622 4.761 1 12.814 1h12.947l10.255-58c5.64-31.9 10.276-58.787 10.303-59.75.043-1.578-1.209-1.75-12.745-1.75h-12.792l-10.325 58.75m93.41-57.272c-29.68 5.501-46.794 27.891-51.595 67.501-2.758 22.759 4.505 39.283 20.482 46.598 7.348 3.364 20.549 4.573 46.113 4.224l22-.301 1.14-5.775c.627-3.176 1.438-7.761 1.802-10.189l.662-4.414-26.302-.311c-25.096-.297-26.496-.415-30.539-2.574-6.336-3.386-8.418-8.175-8.053-18.525l.29-8.212 35.115-.263 35.115-.262 1.214-7.738c.668-4.255 1.452-8.749 1.743-9.987l.53-2.25H1065l.01-2.25c.016-3.817 4.893-13.033 9.265-17.51 7.338-7.513 10.841-8.24 39.68-8.24h24.879l1.077-5.019c.592-2.76 1.366-7.485 1.72-10.5l.644-5.481-25.387.09c-16.157.058-27.933.562-32.388 1.388m80.015-.254c-.624 1.803-20.515 115.554-20.515 117.322 0 1.194 2.22 1.454 12.421 1.454h12.42l.575-2.75c.717-3.424 11.223-68.034 12.725-78.25.607-4.125 1.409-7.839 1.784-8.253.374-.414 5.494 11.511 11.376 26.5A65284.536 65284.536 0 0 0 1212.885 187l6.887 17.5 14.614.277c8.494.161 14.614-.111 14.614-.649 0-1.059 19.735-113.432 20.531-116.908l.522-2.28-12.776.28-12.777.28-2.096 12.5c-1.153 6.875-4.259 25.887-6.903 42.25-2.644 16.363-5.075 29.74-5.404 29.729-.328-.012-8.03-19.024-17.115-42.25L1196.463 85.5l-15.753-.276c-12.071-.211-15.856.023-16.195 1m117.005.026c-.453 1.357-3.52 17.979-3.52 19.078 0 .37 8.55.672 19 .672h19l-.033 2.25c-.018 1.237-3.772 23.175-8.341 48.75-4.569 25.575-8.128 46.838-7.908 47.25.399.749 25.282 1.101 25.282.358 0-.216 3.554-20.578 7.898-45.25 4.344-24.672 8.207-46.761 8.584-49.087l.687-4.229 19.615-.271 19.615-.271 1.728-9.5c.95-5.225 1.76-9.838 1.8-10.25.137-1.404-102.938-.905-103.407.5m115.48-.687c0 .902-20.078 114.704-20.676 117.187-.54 2.246-.519 2.25 12.549 2.25 12.76 0 13.101-.057 13.585-2.25.663-3.005 20.542-116.368 20.542-117.144 0-.333-5.85-.606-13-.606s-13 .253-13 .563m91.061.524c-20.117 2.603-34.331 11.758-42.162 27.156-4.549 8.945-7.432 20.729-13.398 54.757-3.037 17.325-5.778 32.738-6.091 34.25l-.569 2.75h24.974l1.637-9.25c.9-5.088 2.859-16.225 4.354-24.75l2.718-15.5 36.136-.262 36.137-.263 1.603-8.737c.882-4.806 1.603-9.3 1.602-9.988-.002-.977-7.874-1.25-36.021-1.25h-36.019l.636-2.75c2.473-10.688 9.139-19.421 17.902-23.451 4.719-2.17 6.514-2.327 31.981-2.799l26.98-.5 1.71-9c.94-4.95 1.736-9.562 1.769-10.25.07-1.462-44.827-1.593-55.879-.163m72.497 1.163c-.801 3.758-2.381 12.519-5.004 27.75-1.374 7.975-5.436 31.147-9.026 51.493-3.59 20.346-6.528 37.333-6.528 37.75 0 1.113 24.778.925 25.469-.194.324-.522 5.06-26.285 10.526-57.25 5.465-30.964 10.166-57.536 10.446-59.049l.509-2.75h-12.956c-12.627 0-12.968.057-13.436 2.25m85.942-1.252c-28.583 4.278-45.247 22.688-52.529 58.028-6.185 30.016 1.984 50.928 22.632 57.937 6.436 2.185 8.815 2.373 35.598 2.808l28.701.466.526-2.368c.29-1.303 1.01-5.294 1.601-8.869s1.307-7.287 1.59-8.25c.481-1.633-1.114-1.75-23.802-1.756-30.977-.007-35.759-1.252-39.912-10.395-5.939-13.078 2.259-48.712 13.757-59.8 7.94-7.656 10.658-8.258 38.954-8.624l25.116-.324 1.105-6.676c.609-3.671 1.4-8.138 1.76-9.925l.653-3.25-25.375.125c-13.956.068-27.625.461-30.375.873M137.391 265.424c-.301.783-.387 5.621-.192 10.75l.355 9.326 62.973.5 62.973.5 3.118 2.224c6.089 4.343 5.882 1.201 5.882 89.453 0 90.233.589 82.681-6.885 88.261-2.747 2.051-3.364 2.063-119.188 2.328-64.035.147-116.427.616-116.427 1.043 0 4.123 21.838 41.742 33.431 57.59 122.094 166.91 360.646 184.817 505.784 37.966 75.08-75.966 108.389-182.048 90.624-288.615L657.713 264H476v22l61.75.004c68.564.004 65.39-.298 69.946 6.654 2.957 4.513 3.303 161.294.37 167.925-4.028 9.106 9.464 8.37-153.848 8.395-159.602.025-147.842.569-152.902-7.076l-2.816-4.255-.269-96.824-.27-96.823h-80.012c-68.303 0-80.092.208-80.558 1.424M1149 267.009c-35.263 3.937-54.195 25-60.085 66.848-5.63 39.997 13.719 59.705 55.723 56.759 40.255-2.823 62.015-27.534 65.843-74.77 2.894-35.724-19.513-53.524-61.481-48.837m460.633.044c-34.558 3.834-53.706 25.002-59.701 65.996-5.726 39.167 10.202 57.591 49.568 57.335 43.712-.284 66.314-22.846 71.606-71.477 4.152-38.151-17.833-56.696-61.473-51.854m-846.141 4.197c-3.413 14.077-13.483 77.538-13.436 84.68.082 12.647 4.051 20.804 13.007 26.73 7.234 4.788 12.328 5.309 51.937 5.311l36.5.002 7.5-13.986 7.5-13.985 26.455.249 26.456.249 1.298 6.5a883.977 883.977 0 0 0 2.895 13.75l1.597 7.25h27.556l-13.926-55.75c-7.659-30.663-14.372-57.437-14.917-59.5l-.991-3.75H896.284L861.5 327.029c-32.276 53.844-37.629 62.332-36.163 57.346.589-2.002 2.663-13.262 2.663-14.456 0-.393-9.112-.885-20.25-1.094-33.455-.63-36.053-3.694-30.375-35.825 1.41-7.975 4.373-24.85 6.585-37.5 2.213-12.65 4.21-23.788 4.438-24.75.378-1.595-.684-1.75-11.973-1.75-12.017 0-12.403.067-12.933 2.25m217.155 6.44c-.87 4.845-5.444 30.86-10.164 57.81-4.72 26.95-8.822 49.811-9.116 50.802-.51 1.718 1.369 1.786 40.799 1.481 41.206-.319 41.354-.328 47.834-2.798 13.121-5.002 21.582-16.959 22.746-32.146.882-11.519-1.83-17.359-10.655-22.939l-2.409-1.523 4.476-2.624c22.642-13.269 25.33-44.51 4.636-53.861-5.262-2.378-5.537-2.394-45.929-2.702l-40.635-.311-1.583 8.811m245.586 49.498c-5.645 32.072-10.257 58.888-10.249 59.593.012.986 2.836 1.216 12.266 1l12.25-.281 4.002-23 4.002-23 14.791-.277 14.791-.277 2.283 5.277c1.256 2.902 5.399 13.487 9.207 23.523l6.924 18.245 27-.013 27-.013 7.593-13.733 7.592-13.732 26.433-.266 26.433-.266 2.875 14.016 2.875 14.016H1452.038l-.697-2.75c-.384-1.512-7.058-28.175-14.831-59.25l-14.132-56.5-13.439-.273-13.439-.272-35.435 59.092c-32.862 54.801-35.523 58.924-36.641 56.773-1.549-2.983-19.424-45.577-19.424-46.285 0-.294.563-.539 1.25-.545 2.941-.023 12.587-5.431 16.584-9.297 14.04-13.582 17.356-41.367 6.169-51.688-7.854-7.246-8.862-7.396-52.504-7.783l-39.001-.345-10.265 58.311m225.429-48.88c-.914 5.119-1.662 9.619-1.662 10 0 .38 8.55.692 19 .692 16.869 0 19 .182 19 1.624 0 1.526-15.415 90.265-16.525 95.126-.512 2.244-.477 2.25 12.393 2.25h12.906l1.138-6.25c.627-3.437 4.487-25.281 8.579-48.54 4.093-23.26 7.708-42.722 8.034-43.25.345-.559 8.507-.96 19.515-.96 21.74 0 18.969 1.59 21.342-12.25l1.33-7.75h-103.387l-1.663 9.308m235.494 48.942c-5.623 32.038-10.208 58.826-10.19 59.531.026.985 2.854 1.216 12.246 1l12.212-.281 4.038-23 4.038-23h30l4 10.179c2.2 5.598 6.25 16.06 9 23.248l5 13.07 13.75.002c7.563 0 13.75-.26 13.75-.578 0-.319-4.5-11.33-10-24.47-10.945-26.147-10.525-24.951-8.75-24.952.688 0 3.95-1.282 7.25-2.849 22.487-10.676 30.376-49.295 12.346-60.442-8.58-5.304-12.031-5.683-51.907-5.696l-36.56-.012-10.223 58.25M1804 269.574c0 .315 7.419 15.305 16.487 33.311l16.487 32.738-3.004 17.438c-1.653 9.592-3.672 20.976-4.488 25.299-.815 4.324-1.482 8.261-1.482 8.75 0 .49 5.625.89 12.5.89 7.815 0 12.5-.382 12.5-1.018 0-4.005 9.191-51.519 10.213-52.795.708-.885 12.987-15.142 27.287-31.682 14.3-16.541 26.618-30.846 27.372-31.79 1.284-1.604.447-1.713-13-1.688l-14.372.027L1872 291.5c-10.175 12.345-18.751 22.458-19.059 22.473-.307.015-5.257-10.09-11-22.456l-10.441-22.483-13.75-.017c-7.562-.009-13.75.241-13.75.557m-661.698 19.529c-14.34 5.513-23.51 21.547-26.185 45.787-2.7 24.457 5.212 35.238 25.835 35.205 24.776-.039 38.983-18.04 40.721-51.595.88-16.973-1.887-23.828-11.603-28.75-7.024-3.558-20.413-3.86-28.768-.647m460.28.377c-14.107 5.8-22.851 21.367-25.567 45.52-2.723 24.213 5.331 35.143 25.895 35.143 10.614 0 17.887-2.452 24.476-8.251 14.521-12.782 21.81-51.733 12.353-66.01-5.768-8.706-23.937-11.836-37.157-6.402m-601.402 12.888c-1.199 6.802-2.18 13.133-2.18 14.069 0 2.793 42.993 1.934 48-.96 6.582-3.804 10.119-15.314 6.434-20.937-2.583-3.943-6.386-4.54-28.903-4.54h-21.171l-2.18 12.368m256.334-11.118c-.74 2.183-4.514 24.567-4.514 26.773 0 3.469 41.443 2.655 47.714-.937 10.776-6.173 11.095-23.101.491-26.046-5.589-1.552-43.155-1.371-43.691.21m458.714 12c-1.229 7.288-2.233 14.038-2.231 15 .004 2.319 37.937 2.577 44.319.301 13.414-4.784 16.145-24.107 3.889-27.511-2.038-.566-12.714-1.031-23.724-1.034l-20.019-.006-2.234 13.25m-812.431-9.701C900.974 298.262 879 338.073 879 338.475c0 .832 34.835.61 35.294-.225.361-.659-8.12-40.439-9.425-44.201-.276-.798-.759-1.023-1.072-.5m486.942 21.856c-6.864 12.387-12.238 22.763-11.942 23.058.835.836 34.028.631 34.539-.213.487-.804-8.78-44.027-9.618-44.866-.275-.275-6.116 9.635-12.979 22.021m-396.19 24.845c-1.661 5.347-4.513 26.186-3.695 27.004 1.675 1.675 41.958.412 46.228-1.45 10.049-4.381 13.065-19.114 5.02-24.52-3.281-2.205-4.15-2.284-25.281-2.284-16.633 0-21.977.3-22.272 1.25M795 452.662c-27.571 2.693-42 18.18-42 45.08 0 20.508 8.664 25.24 46.299 25.282 23.596.026 28.172.678 31.451 4.479 4.511 5.23 1.315 16.891-5.75 20.974-3.313 1.915-5.485 2.039-40.564 2.328l-37.064.305-1.277 7.695c-.703 4.232-1.518 8.932-1.811 10.445l-.534 2.75 37.875-.017c47.615-.022 54.066-1.126 64.894-11.107 13.94-12.849 17.924-42.596 6.92-51.666-6.112-5.038-8.854-5.475-38.439-6.132-30.376-.674-32.527-1.107-34.983-7.037-2.205-5.324.788-14.265 6.143-18.35 5.104-3.892 12.972-4.675 47.09-4.683 16.913-.005 30.769-.121 30.793-.258.024-.137.843-4.643 1.821-10.012.978-5.369 1.559-9.982 1.291-10.25-.536-.536-66.518-.377-72.155.174m96.589 2.088c-2.395 11.567-13.675 78.208-14.196 83.868-2.228 24.203 14.312 35.479 50.026 34.104 29.611-1.14 45.349-11.172 52.119-33.222 2.518-8.202 16.558-85.399 15.777-86.75-.238-.413-5.771-.75-12.295-.75h-11.861l-.556 2.75c-.305 1.512-3.263 18.275-6.572 37.25-7.757 44.485-8.603 47.574-14.891 54.342-5.49 5.909-9.441 7.158-22.64 7.158-26.166 0-27.271-4.436-16.262-65.273 3.51-19.4 6.168-35.488 5.906-35.75-.263-.262-5.767-.477-12.231-.477h-11.754l-.57 2.75m128.979-1.86c-.382.618-5.16 26.433-10.619 57.366-5.458 30.934-10.191 57.481-10.516 58.994l-.592 2.75h25l.545-2.75c.3-1.513 1.974-10.92 3.72-20.904l3.174-18.155 26.11-.402c28.478-.437 33.006-1.227 42.907-7.477 12.889-8.136 20.448-24.341 19.49-41.781-.816-14.837-8.105-23.47-22.479-26.625-7.035-1.544-75.851-2.455-76.74-1.016m122.997.225c-.642 1.868-20.565 115.725-20.565 117.526 0 1.165 2.197 1.37 12.227 1.14l12.227-.281 3.594-20.5 3.594-20.5 25.929-.609c31.483-.739 36.402-1.851 47.317-10.696 16.546-13.407 20.99-44.18 8.308-57.534-7.404-7.797-12.786-8.699-55.926-9.369-30.338-.471-36.307-.337-36.705.823m120.435-.319c0 .437-2.96 17.425-6.578 37.75-9.814 55.131-9.712 60.33 1.4 71.43 8.769 8.76 10.827 9.253 40.829 9.78 23.817.418 25.18.343 25.676-1.407.934-3.294 2.887-16.468 2.499-16.857-.208-.207-8.916-.583-19.352-.835-21.049-.507-24.759-1.292-29.568-6.254-5.083-5.244-4.941-8.116 2.521-50.903 3.644-20.9 6.875-39.238 7.179-40.75l.553-2.75h-12.58c-6.918 0-12.579.358-12.579.796m95.522.454c-.576 1.732-20.528 115.954-20.525 117.5.002.935 3.245 1.25 12.871 1.25h12.869l.542-3.75c.534-3.696 1.657-10.115 13.661-78.049 3.333-18.865 6.06-35.177 6.06-36.25 0-1.831-.772-1.951-12.531-1.951-9.137 0-12.644.339-12.947 1.25m89.478-.233c-28.357 2.785-46.28 19.24-54.444 49.983-7.224 27.201-4.614 47.36 7.585 58.593 9.867 9.085 16.155 10.367 50.982 10.39l26.623.017 1.627-8.893c.895-4.892 1.627-9.59 1.627-10.441 0-1.349-3.411-1.586-26.75-1.856-26.25-.304-26.822-.355-30.618-2.715-5.407-3.361-7.582-8.601-7.61-18.332l-.022-7.737 35.25-.263 35.25-.263 1.702-8.5c.936-4.675 1.724-9.288 1.75-10.25.045-1.634-2.249-1.75-34.577-1.75h-34.625l.585-2.926c1.82-9.101 9.241-18.6 17.516-22.424 4.27-1.973 6.767-2.189 30.6-2.649l25.95-.501 1.727-9.5c.949-5.225 1.759-9.837 1.799-10.25.092-.942-41.818-.727-51.927.267m98.5.065c-20.707 2.433-32.444 12.761-37.11 32.659-3.34 14.242-.845 25.744 6.783 31.27 6.565 4.755 9.575 5.224 37.827 5.897 27.183.648 29.664 1.027 32.718 5.005 2.482 3.233.976 13.306-2.607 17.439-4.337 5.002-5.238 5.116-44.604 5.648l-36.993.5-1.166 6.5a737.209 737.209 0 0 0-1.768 10.25l-.604 3.75 37.762-.017c40.013-.019 45.948-.546 55.989-4.974 20.165-8.892 30.029-47.18 15.024-58.319-6.252-4.642-8.81-5.024-37.751-5.638-23.341-.496-27.979-.844-30.667-2.301-8.7-4.716-5.284-20.112 5.575-25.122 4.323-1.995 6.637-2.148 39.563-2.624l34.97-.505 1.23-7.5c.676-4.125 1.466-8.738 1.754-10.25l.525-2.75-34.725.13c-19.099.071-37.875.5-41.725.952m-505.764 20.542c-.296.482-1.717 7.401-3.158 15.376-1.441 7.975-2.872 15.738-3.179 17.25l-.558 2.75h19.454c14.954 0 20.462-.356 23.815-1.539 14.864-5.244 19.356-26.755 6.678-31.981-4.739-1.953-42.005-3.56-43.052-1.856m122.799 1.49c-1.064 4.447-5.526 30.375-5.531 32.136-.005 2.042 34.207 2.652 41.114.734 15.708-4.363 21.389-26.087 8.47-32.394-3.321-1.621-6.894-1.981-23.696-2.385l-19.786-.476-.571 2.385" fill-rule="evenodd"/></svg>